<?xml version="1.0" encoding="UTF-8" standalone="no"?>
<!DOCTYPE svg PUBLIC "-//W3C//DTD SVG 1.1//EN" "http://www.w3.org/Graphics/SVG/1.1/DTD/svg11.dtd">
<svg version="1.1" xmlns="http://www.w3.org/2000/svg" xmlns:xlink="http://www.w3.org/1999/xlink" preserveAspectRatio="xMidYMid meet" viewBox="0 0 640 640" width="640" height="640"><defs><path d="M344.75 467.1L536.6 258.26L536.6 164.7L458.5 107.89L400.78 107.89L190.24 315.06L132.52 523.9L344.75 467.1Z" id="a2C9tH5rxJ"></path><path d="M540 253.25L460.66 253.25L402.47 190.69L402.47 107.89" id="a829UgIkSc"></path><path d="M285.32 427L461.38 252.05" id="a6pyVze6O2"></path><path d="" id="d39ceuFWou"></path><path d="M190.24 319.61C187.98 355.4 203.65 369.57 237.27 362.14L401.17 189.5" id="bOA4HA7I0"></path><path d="M285.32 423.66C247.97 420.32 231.92 399.79 237.18 362.09" id="grZsBdDCi"></path><path d="M287.02 425.33C293.81 452.06 313.05 465.98 344.75 467.1" id="a2k3si3w76"></path><path d="M490.44 201C482.73 210.03 467.51 209.96 456.46 200.84C445.41 191.71 442.7 176.97 450.4 167.94C458.1 158.91 473.33 158.98 484.37 168.11C495.42 177.23 498.14 191.97 490.44 201Z" id="aZFfDt4yj"></path><path d="M177.61 503.42C177.61 515.35 166.5 525.03 152.82 525.03C139.13 525.03 128.02 515.35 128.02 503.42C128.02 491.5 139.13 481.81 152.82 481.81C166.5 481.81 177.61 491.5 177.61 503.42Z" id="dGIo2yvUc"></path></defs><g><g><g><g><use xlink:href="#a2C9tH5rxJ" opacity="1" fill-opacity="0" stroke="#ffffff" stroke-width="30" stroke-opacity="1"></use></g></g><g><g><use xlink:href="#a829UgIkSc" opacity="1" fill-opacity="0" stroke="#fffefe" stroke-width="30" stroke-opacity="1"></use></g></g><g><g><use xlink:href="#a6pyVze6O2" opacity="1" fill-opacity="0" stroke="#ffffff" stroke-width="30" stroke-opacity="1"></use></g></g><g><g><use xlink:href="#d39ceuFWou" opacity="1" fill-opacity="0" stroke="#000000" stroke-width="1" stroke-opacity="1"></use></g></g><g><g><use xlink:href="#bOA4HA7I0" opacity="1" fill-opacity="0" stroke="#ffffff" stroke-width="30" stroke-opacity="1"></use></g></g><g><g><use xlink:href="#grZsBdDCi" opacity="1" fill-opacity="0" stroke="#ffffff" stroke-width="30" stroke-opacity="1"></use></g></g><g><g><use xlink:href="#a2k3si3w76" opacity="1" fill-opacity="0" stroke="#ffffff" stroke-width="30" stroke-opacity="1"></use></g></g><g><use xlink:href="#aZFfDt4yj" opacity="1" fill="#ffffff" fill-opacity="1"></use></g><g><use xlink:href="#dGIo2yvUc" opacity="1" fill="#ffffff" fill-opacity="1"></use></g></g></g></svg>