<?xml version="1.0" encoding="UTF-8" standalone="no"?>
<!DOCTYPE svg PUBLIC "-//W3C//DTD SVG 1.1//EN" "http://www.w3.org/Graphics/SVG/1.1/DTD/svg11.dtd">
<svg version="1.1" xmlns="http://www.w3.org/2000/svg" xmlns:xlink="http://www.w3.org/1999/xlink" preserveAspectRatio="xMidYMid meet" viewBox="0 0 640 640" width="640" height="640"><defs><path d="M474.86 141.82C479.19 141.82 482.7 145.33 482.7 149.67C482.7 163.13 482.7 195.67 482.7 209.14C482.7 213.47 479.19 216.98 474.86 216.98C411.35 216.98 228.65 216.98 165.14 216.98C160.81 216.98 157.3 213.47 157.3 209.14C157.3 195.67 157.3 163.13 157.3 149.67C157.3 145.33 160.81 141.82 165.14 141.82C228.65 141.82 411.35 141.82 474.86 141.82Z" id="b14aa1F5z7"></path><path d="M439.09 216.98C442.42 216.98 445.12 219.68 445.12 223.02C445.12 281.06 445.12 449.14 445.12 507.18C445.12 510.51 442.42 513.21 439.09 513.21C390.25 513.21 249.75 513.21 200.91 513.21C197.58 513.21 194.88 510.51 194.88 507.18C194.88 449.14 194.88 281.06 194.88 223.02C194.88 219.68 197.58 216.98 200.91 216.98C249.75 216.98 390.25 216.98 439.09 216.98Z" id="a25dN9jmfK"></path><path d="M378.07 98.49C379.7 98.49 381.01 99.81 381.01 101.43C381.01 109.51 381.01 130.8 381.01 138.88C381.01 140.5 379.7 141.82 378.07 141.82C354.25 141.82 285.75 141.82 261.93 141.82C260.3 141.82 258.99 140.5 258.99 138.88C258.99 130.8 258.99 109.51 258.99 101.43C258.99 99.81 260.3 98.49 261.93 98.49C285.75 98.49 354.25 98.49 378.07 98.49Z" id="hRRi5EIQ"></path><path d="M258.99 251.47C262.89 251.47 266.06 254.64 266.06 258.54C266.06 301.52 266.06 423.37 266.06 466.35C266.06 470.25 262.89 473.42 258.99 473.42C257.57 473.42 260.4 473.42 258.99 473.42C255.08 473.42 251.91 470.25 251.91 466.35C251.91 423.37 251.91 301.52 251.91 258.54C251.91 254.64 255.08 251.47 258.99 251.47C260.4 251.47 257.57 251.47 258.99 251.47Z" id="cbC7WjFIJA"></path><path d="M320 251.47C323.91 251.47 327.07 254.64 327.07 258.54C327.07 301.52 327.07 423.37 327.07 466.35C327.07 470.25 323.91 473.42 320 473.42C318.59 473.42 321.41 473.42 320 473.42C316.09 473.42 312.93 470.25 312.93 466.35C312.93 423.37 312.93 301.52 312.93 258.54C312.93 254.64 316.09 251.47 320 251.47C321.41 251.47 318.59 251.47 320 251.47Z" id="b2ML5yQvDi"></path><path d="M381.01 251.47C384.92 251.47 388.09 254.64 388.09 258.54C388.09 301.52 388.09 423.37 388.09 466.35C388.09 470.25 384.92 473.42 381.01 473.42C379.6 473.42 382.43 473.42 381.01 473.42C377.11 473.42 373.94 470.25 373.94 466.35C373.94 423.37 373.94 301.52 373.94 258.54C373.94 254.64 377.11 251.47 381.01 251.47C382.43 251.47 379.6 251.47 381.01 251.47Z" id="cKhLwZu6P"></path></defs><g><g><g><g><use xlink:href="#b14aa1F5z7" opacity="1" fill-opacity="0" stroke="#ffffff" stroke-width="30" stroke-opacity="1"></use></g></g><g><g><use xlink:href="#a25dN9jmfK" opacity="1" fill-opacity="0" stroke="#ffffff" stroke-width="30" stroke-opacity="1"></use></g></g><g><g><use xlink:href="#hRRi5EIQ" opacity="1" fill-opacity="0" stroke="#ffffff" stroke-width="30" stroke-opacity="1"></use></g></g><g><use xlink:href="#cbC7WjFIJA" opacity="1" fill="#ffffff" fill-opacity="0.98"></use></g><g><use xlink:href="#b2ML5yQvDi" opacity="1" fill="#ffffff" fill-opacity="0.98"></use></g><g><use xlink:href="#cKhLwZu6P" opacity="1" fill="#ffffff" fill-opacity="0.98"></use></g></g></g></svg>